# Blender v2.91.0 OBJ File: ''
# www.blender.org
mtllib Door.mtl
o window
v 14.419052 -20.260418 2.521752
v 13.464310 -19.675640 2.521752
v -13.615829 -19.675640 2.521752
v -14.570572 -20.260418 2.521752
v 14.419052 25.698147 2.521760
v 13.464310 24.685589 2.521759
v -13.615845 24.685589 2.521759
v -14.570572 25.698147 2.521760
v -13.615829 -19.675640 0.071755
v 13.464310 -19.675640 0.071755
v 14.419052 -20.260418 0.071755
v -14.570572 -20.260418 0.071755
v 13.464310 24.685589 0.071762
v 14.419052 25.698147 0.071762
v -13.615845 24.685589 0.071762
v -14.570572 25.698147 0.071762
v -0.071785 2.091534 1.401898
v 13.464531 2.091534 1.401898
v 12.879753 2.491650 1.401898
v 0.383781 2.491650 1.401898
v 13.464531 13.078228 1.401930
v 12.879761 12.871502 1.401930
v -0.071785 13.078228 1.401900
v 0.383781 12.871502 1.401899
v -13.624420 2.091534 1.401898
v -0.079742 2.091534 1.401898
v -0.535309 2.491650 1.401898
v -13.039642 2.491650 1.401898
v -0.079735 13.078228 1.401930
v -0.535309 12.871502 1.401930
v -13.624420 13.078228 1.401900
v -13.039642 12.871502 1.401899
v 13.464531 13.491680 1.401930
v 13.464531 24.213680 1.401932
v 12.879753 23.813572 1.401932
v 12.879761 13.698406 1.401930
v -0.071785 24.213680 1.401932
v 0.383781 23.813572 1.401932
v -0.071785 13.491680 1.401900
v 0.383781 13.698406 1.401900
v -0.079735 13.491680 1.401930
v -0.079735 24.213680 1.401932
v -0.535309 23.813572 1.401932
v -0.535309 13.698406 1.401930
v -13.624420 24.213680 1.401932
v -13.039658 23.813572 1.401932
v -13.624420 13.491680 1.401900
v -13.039642 13.698406 1.401900
v 12.879753 2.491650 -1.048084
v 13.464531 2.091534 -1.048084
v -0.071785 2.091534 -1.048084
v 0.383781 2.491650 -1.048084
v 12.879761 12.871502 -1.048082
v 13.464531 13.078228 -1.048082
v -0.071785 13.078228 -1.048082
v 0.383781 12.871502 -1.048082
v -0.535309 2.491650 -1.048084
v -0.079742 2.091534 -1.048084
v -13.624420 2.091534 -1.048084
v -13.039642 2.491650 -1.048084
v -0.535309 12.871502 -1.048082
v -0.079735 13.078228 -1.048082
v -13.624420 13.078228 -1.048082
v -13.039642 12.871502 -1.048082
v 12.879753 23.813572 -1.048080
v 13.464531 24.213680 -1.048080
v 13.464531 13.491680 -1.048082
v 12.879761 13.698406 -1.048082
v 0.383781 23.813572 -1.048080
v -0.071785 24.213680 -1.048080
v 0.383781 13.698406 -1.048082
v -0.071785 13.491680 -1.048082
v -0.535309 23.813572 -1.048080
v -0.079735 24.213680 -1.048080
v -0.079735 13.491680 -1.048082
v -0.535309 13.698406 -1.048082
v -13.039658 23.813572 -1.048080
v -13.624420 24.213680 -1.048080
v -13.039642 13.698406 -1.048082
v -13.624420 13.491680 -1.048082
v -0.071785 -19.659763 1.919259
v 13.464531 -19.659763 1.919259
v 12.879753 -19.259644 1.919259
v 0.383781 -19.259644 1.919259
v 13.464531 -8.673065 1.919276
v 12.879761 -8.879791 1.919276
v -0.071785 -8.673065 1.919261
v 0.383781 -8.879791 1.919261
v -13.624420 -19.659763 1.919259
v -0.079742 -19.659763 1.919259
v -0.535309 -19.259644 1.919259
v -13.039642 -19.259644 1.919259
v -0.079735 -8.673065 1.919276
v -0.535309 -8.879791 1.919276
v -13.624420 -8.673065 1.919261
v -13.039642 -8.879791 1.919261
v 13.464531 -8.259613 1.919276
v 13.464531 2.462387 1.919278
v 12.879753 2.062275 1.919277
v 12.879761 -8.052887 1.919276
v -0.071785 2.462387 1.919278
v 0.383781 2.062275 1.919277
v -0.071785 -8.259613 1.919261
v 0.383781 -8.052887 1.919261
v -0.079735 -8.259613 1.919276
v -0.079735 2.462387 1.919278
v -0.535309 2.062275 1.919277
v -0.535309 -8.052887 1.919276
v -13.624420 2.462387 1.919278
v -13.039658 2.062275 1.919277
v -13.624420 -8.259613 1.919261
v -13.039642 -8.052887 1.919261
v 12.879753 -19.259644 -0.530738
v 13.464531 -19.659763 -0.530738
v -0.071785 -19.659763 -0.530753
v 0.383781 -19.259644 -0.530753
v 12.879761 -8.879791 -0.530721
v 13.464531 -8.673065 -0.530721
v -0.071785 -8.673065 -0.530736
v 0.383781 -8.879791 -0.530737
v -0.535309 -19.259644 -0.530738
v -0.079742 -19.659763 -0.530738
v -13.624420 -19.659763 -0.530753
v -13.039642 -19.259644 -0.530753
v -0.535309 -8.879791 -0.530721
v -0.079735 -8.673065 -0.530721
v -13.624420 -8.673065 -0.530736
v -13.039642 -8.879791 -0.530737
v 12.879753 2.062275 -0.530720
v 13.464531 2.462388 -0.530719
v 13.464531 -8.259613 -0.530721
v 12.879761 -8.052887 -0.530721
v 0.383781 2.062275 -0.530720
v -0.071785 2.462388 -0.530719
v 0.383781 -8.052887 -0.530736
v -0.071785 -8.259613 -0.530736
v -0.535309 2.062275 -0.530720
v -0.079735 2.462388 -0.530719
v -0.079735 -8.259613 -0.530721
v -0.535309 -8.052887 -0.530721
v -13.039658 2.062275 -0.530720
v -13.624420 2.462388 -0.530719
v -13.039642 -8.052887 -0.530736
v -13.624420 -8.259613 -0.530736
v -13.915482 -20.167088 1.783425
v 13.868767 -20.167088 1.783440
v 13.868767 2.220230 1.783459
v -13.915482 2.220230 1.783444
v -13.915482 2.646091 1.369854
v 13.868767 2.646091 1.369870
v 13.868767 25.033413 1.369889
v -13.915482 25.033413 1.369873
vt 0.750000 0.000000
vt 0.750000 0.000000
vt 0.250000 0.000000
vt 0.250000 0.000000
vt 0.750000 1.000000
vt 0.750000 1.000000
vt 0.250000 1.000000
vt 0.250000 1.000000
vt 0.250000 0.000000
vt 0.750000 0.000000
vt 0.750000 0.000000
vt 0.250000 0.000000
vt 0.750000 1.000000
vt 0.750000 1.000000
vt 0.250000 1.000000
vt 0.250000 1.000000
vt 0.500000 0.000000
vt 0.750000 0.000000
vt 0.750000 0.000000
vt 0.500000 0.000000
vt 0.750000 0.500000
vt 0.750000 0.500000
vt 0.500000 0.500000
vt 0.500000 0.500000
vt 0.250000 0.000000
vt 0.500000 0.000000
vt 0.500000 0.000000
vt 0.250000 0.000000
vt 0.500000 0.500000
vt 0.500000 0.500000
vt 0.250000 0.500000
vt 0.250000 0.500000
vt 0.750000 0.500000
vt 0.750000 1.000000
vt 0.750000 1.000000
vt 0.750000 0.500000
vt 0.500000 1.000000
vt 0.500000 1.000000
vt 0.500000 0.500000
vt 0.500000 0.500000
vt 0.500000 0.500000
vt 0.500000 1.000000
vt 0.500000 1.000000
vt 0.500000 0.500000
vt 0.250000 1.000000
vt 0.250000 1.000000
vt 0.250000 0.500000
vt 0.250000 0.500000
vt 0.750000 0.000000
vt 0.750000 0.000000
vt 0.500000 0.000000
vt 0.500000 0.000000
vt 0.750000 0.500000
vt 0.750000 0.500000
vt 0.500000 0.500000
vt 0.500000 0.500000
vt 0.500000 0.000000
vt 0.500000 0.000000
vt 0.250000 0.000000
vt 0.250000 0.000000
vt 0.500000 0.500000
vt 0.500000 0.500000
vt 0.250000 0.500000
vt 0.250000 0.500000
vt 0.750000 1.000000
vt 0.750000 1.000000
vt 0.750000 0.500000
vt 0.750000 0.500000
vt 0.500000 1.000000
vt 0.500000 1.000000
vt 0.500000 0.500000
vt 0.500000 0.500000
vt 0.500000 1.000000
vt 0.500000 1.000000
vt 0.500000 0.500000
vt 0.500000 0.500000
vt 0.250000 1.000000
vt 0.250000 1.000000
vt 0.250000 0.500000
vt 0.250000 0.500000
vt 0.500000 0.000000
vt 0.750000 0.000000
vt 0.750000 0.000000
vt 0.500000 0.000000
vt 0.750000 0.500000
vt 0.750000 0.500000
vt 0.500000 0.500000
vt 0.500000 0.500000
vt 0.250000 0.000000
vt 0.500000 0.000000
vt 0.500000 0.000000
vt 0.250000 0.000000
vt 0.500000 0.500000
vt 0.500000 0.500000
vt 0.250000 0.500000
vt 0.250000 0.500000
vt 0.750000 0.500000
vt 0.750000 1.000000
vt 0.750000 1.000000
vt 0.750000 0.500000
vt 0.500000 1.000000
vt 0.500000 1.000000
vt 0.500000 0.500000
vt 0.500000 0.500000
vt 0.500000 0.500000
vt 0.500000 1.000000
vt 0.500000 1.000000
vt 0.500000 0.500000
vt 0.250000 1.000000
vt 0.250000 1.000000
vt 0.250000 0.500000
vt 0.250000 0.500000
vt 0.750000 0.000000
vt 0.750000 0.000000
vt 0.500000 0.000000
vt 0.500000 0.000000
vt 0.750000 0.500000
vt 0.750000 0.500000
vt 0.500000 0.500000
vt 0.500000 0.500000
vt 0.500000 0.000000
vt 0.500000 0.000000
vt 0.250000 0.000000
vt 0.250000 0.000000
vt 0.500000 0.500000
vt 0.500000 0.500000
vt 0.250000 0.500000
vt 0.250000 0.500000
vt 0.750000 1.000000
vt 0.750000 1.000000
vt 0.750000 0.500000
vt 0.750000 0.500000
vt 0.500000 1.000000
vt 0.500000 1.000000
vt 0.500000 0.500000
vt 0.500000 0.500000
vt 0.500000 1.000000
vt 0.500000 1.000000
vt 0.500000 0.500000
vt 0.500000 0.500000
vt 0.250000 1.000000
vt 0.250000 1.000000
vt 0.250000 0.500000
vt 0.250000 0.500000
vt 0.000000 0.000000
vt 1.000000 0.000000
vt 1.000000 1.000000
vt 0.000000 1.000000
vt 0.000000 0.000000
vt 1.000000 0.000000
vt 1.000000 1.000000
vt 0.000000 1.000000
vn -0.0000 -0.0000 1.0000
vn -0.0000 0.0000 -1.0000
vn 0.0000 1.0000 0.0000
vn 0.0000 -1.0000 0.0000
vn -1.0000 0.0000 0.0000
vn 1.0000 0.0000 0.0000
usemtl wire_088088225
s 1
f 1/1/1 2/2/1 3/3/1 4/4/1
f 5/5/1 6/6/1 2/2/1 1/1/1
f 4/4/1 3/3/1 7/7/1 8/8/1
f 8/8/1 7/7/1 6/6/1 5/5/1
f 9/9/2 10/10/2 11/11/2 12/12/2
f 10/10/2 13/13/2 14/14/2 11/11/2
f 15/15/2 9/9/2 12/12/2 16/16/2
f 13/13/2 15/15/2 16/16/2 14/14/2
f 3/3/3 2/2/3 10/10/3 9/9/3
f 1/1/4 4/4/4 12/12/4 11/11/4
f 2/2/5 6/6/5 13/13/5 10/10/5
f 5/5/6 1/1/6 11/11/6 14/14/6
f 7/7/6 3/3/6 9/9/6 15/15/6
f 4/4/5 8/8/5 16/16/5 12/12/5
f 6/6/4 7/7/4 15/15/4 13/13/4
f 8/8/3 5/5/3 14/14/3 16/16/3
f 17/17/1 18/18/1 19/19/1 20/20/1
f 18/18/1 21/21/1 22/22/1 19/19/1
f 23/23/1 17/17/1 20/20/1 24/24/1
f 25/25/1 26/26/1 27/27/1 28/28/1
f 26/26/1 29/29/1 30/30/1 27/27/1
f 31/31/1 25/25/1 28/28/1 32/32/1
f 33/33/1 34/34/1 35/35/1 36/36/1
f 34/34/1 37/37/1 38/38/1 35/35/1
f 37/37/1 39/39/1 40/40/1 38/38/1
f 36/36/1 40/40/1 39/39/1 33/33/1
f 21/21/1 33/33/1 39/39/1 23/23/1
f 21/21/1 23/23/1 24/24/1 22/22/1
f 41/41/1 42/42/1 43/43/1 44/44/1
f 42/42/1 45/45/1 46/46/1 43/43/1
f 45/45/1 47/47/1 48/48/1 46/46/1
f 44/44/1 48/48/1 47/47/1 41/41/1
f 29/29/1 41/41/1 47/47/1 31/31/1
f 29/29/1 31/31/1 32/32/1 30/30/1
f 49/49/2 50/50/2 51/51/2 52/52/2
f 53/53/2 54/54/2 50/50/2 49/49/2
f 52/52/2 51/51/2 55/55/2 56/56/2
f 57/57/2 58/58/2 59/59/2 60/60/2
f 61/61/2 62/62/2 58/58/2 57/57/2
f 60/60/2 59/59/2 63/63/2 64/64/2
f 65/65/2 66/66/2 67/67/2 68/68/2
f 69/69/2 70/70/2 66/66/2 65/65/2
f 71/71/2 72/72/2 70/70/2 69/69/2
f 72/72/2 71/71/2 68/68/2 67/67/2
f 72/72/2 67/67/2 54/54/2 55/55/2
f 56/56/2 55/55/2 54/54/2 53/53/2
f 73/73/2 74/74/2 75/75/2 76/76/2
f 77/77/2 78/78/2 74/74/2 73/73/2
f 79/79/2 80/80/2 78/78/2 77/77/2
f 80/80/2 79/79/2 76/76/2 75/75/2
f 80/80/2 75/75/2 62/62/2 63/63/2
f 64/64/2 63/63/2 62/62/2 61/61/2
f 18/18/4 17/17/4 51/51/4 50/50/4
f 20/20/3 19/19/3 49/49/3 52/52/3
f 21/21/6 18/18/6 50/50/6 54/54/6
f 19/19/5 22/22/5 53/53/5 49/49/5
f 17/17/5 23/23/5 55/55/5 51/51/5
f 24/24/6 20/20/6 52/52/6 56/56/6
f 26/26/4 25/25/4 59/59/4 58/58/4
f 28/28/3 27/27/3 57/57/3 60/60/3
f 29/29/6 26/26/6 58/58/6 62/62/6
f 27/27/5 30/30/5 61/61/5 57/57/5
f 25/25/5 31/31/5 63/63/5 59/59/5
f 32/32/6 28/28/6 60/60/6 64/64/6
f 34/34/6 33/33/6 67/67/6 66/66/6
f 36/36/5 35/35/5 65/65/5 68/68/5
f 37/37/3 34/34/3 66/66/3 70/70/3
f 35/35/4 38/38/4 69/69/4 65/65/4
f 39/39/5 37/37/5 70/70/5 72/72/5
f 38/38/6 40/40/6 71/71/6 69/69/6
f 22/22/4 24/24/4 56/56/4 53/53/4
f 23/23/5 39/39/5 72/72/5 55/55/5
f 33/33/6 21/21/6 54/54/6 67/67/6
f 40/40/3 36/36/3 68/68/3 71/71/3
f 42/42/6 41/41/6 75/75/6 74/74/6
f 44/44/5 43/43/5 73/73/5 76/76/5
f 45/45/3 42/42/3 74/74/3 78/78/3
f 43/43/4 46/46/4 77/77/4 73/73/4
f 47/47/5 45/45/5 78/78/5 80/80/5
f 46/46/6 48/48/6 79/79/6 77/77/6
f 30/30/4 32/32/4 64/64/4 61/61/4
f 31/31/5 47/47/5 80/80/5 63/63/5
f 41/41/6 29/29/6 62/62/6 75/75/6
f 48/48/3 44/44/3 76/76/3 79/79/3
f 81/81/1 82/82/1 83/83/1 84/84/1
f 82/82/1 85/85/1 86/86/1 83/83/1
f 87/87/1 81/81/1 84/84/1 88/88/1
f 89/89/1 90/90/1 91/91/1 92/92/1
f 90/90/1 93/93/1 94/94/1 91/91/1
f 95/95/1 89/89/1 92/92/1 96/96/1
f 97/97/1 98/98/1 99/99/1 100/100/1
f 98/98/1 101/101/1 102/102/1 99/99/1
f 101/101/1 103/103/1 104/104/1 102/102/1
f 100/100/1 104/104/1 103/103/1 97/97/1
f 85/85/1 97/97/1 103/103/1 87/87/1
f 85/85/1 87/87/1 88/88/1 86/86/1
f 105/105/1 106/106/1 107/107/1 108/108/1
f 106/106/1 109/109/1 110/110/1 107/107/1
f 109/109/1 111/111/1 112/112/1 110/110/1
f 108/108/1 112/112/1 111/111/1 105/105/1
f 93/93/1 105/105/1 111/111/1 95/95/1
f 93/93/1 95/95/1 96/96/1 94/94/1
f 113/113/2 114/114/2 115/115/2 116/116/2
f 117/117/2 118/118/2 114/114/2 113/113/2
f 116/116/2 115/115/2 119/119/2 120/120/2
f 121/121/2 122/122/2 123/123/2 124/124/2
f 125/125/2 126/126/2 122/122/2 121/121/2
f 124/124/2 123/123/2 127/127/2 128/128/2
f 129/129/2 130/130/2 131/131/2 132/132/2
f 133/133/2 134/134/2 130/130/2 129/129/2
f 135/135/2 136/136/2 134/134/2 133/133/2
f 136/136/2 135/135/2 132/132/2 131/131/2
f 136/136/2 131/131/2 118/118/2 119/119/2
f 120/120/2 119/119/2 118/118/2 117/117/2
f 137/137/2 138/138/2 139/139/2 140/140/2
f 141/141/2 142/142/2 138/138/2 137/137/2
f 143/143/2 144/144/2 142/142/2 141/141/2
f 144/144/2 143/143/2 140/140/2 139/139/2
f 144/144/2 139/139/2 126/126/2 127/127/2
f 128/128/2 127/127/2 126/126/2 125/125/2
f 82/82/4 81/81/4 115/115/4 114/114/4
f 84/84/3 83/83/3 113/113/3 116/116/3
f 85/85/6 82/82/6 114/114/6 118/118/6
f 83/83/5 86/86/5 117/117/5 113/113/5
f 81/81/5 87/87/5 119/119/5 115/115/5
f 88/88/6 84/84/6 116/116/6 120/120/6
f 90/90/4 89/89/4 123/123/4 122/122/4
f 92/92/3 91/91/3 121/121/3 124/124/3
f 93/93/6 90/90/6 122/122/6 126/126/6
f 91/91/5 94/94/5 125/125/5 121/121/5
f 89/89/5 95/95/5 127/127/5 123/123/5
f 96/96/6 92/92/6 124/124/6 128/128/6
f 98/98/6 97/97/6 131/131/6 130/130/6
f 100/100/5 99/99/5 129/129/5 132/132/5
f 101/101/3 98/98/3 130/130/3 134/134/3
f 99/99/4 102/102/4 133/133/4 129/129/4
f 103/103/5 101/101/5 134/134/5 136/136/5
f 102/102/6 104/104/6 135/135/6 133/133/6
f 86/86/4 88/88/4 120/120/4 117/117/4
f 87/87/5 103/103/5 136/136/5 119/119/5
f 97/97/6 85/85/6 118/118/6 131/131/6
f 104/104/3 100/100/3 132/132/3 135/135/3
f 106/106/6 105/105/6 139/139/6 138/138/6
f 108/108/5 107/107/5 137/137/5 140/140/5
f 109/109/3 106/106/3 138/138/3 142/142/3
f 107/107/4 110/110/4 141/141/4 137/137/4
f 111/111/5 109/109/5 142/142/5 144/144/5
f 110/110/6 112/112/6 143/143/6 141/141/6
f 94/94/4 96/96/4 128/128/4 125/125/4
f 95/95/5 111/111/5 144/144/5 127/127/5
f 105/105/6 93/93/6 126/126/6 139/139/6
f 112/112/3 108/108/3 140/140/3 143/143/3
f 145/145/1 146/146/1 147/147/1 148/148/1
f 149/149/1 150/150/1 151/151/1 152/152/1
